<?xml version="1.0" standalone="no"?>
<!DOCTYPE svg PUBLIC "-//W3C//DTD SVG 20010904//EN"
 "http://www.w3.org/TR/2001/REC-SVG-20010904/DTD/svg10.dtd">
<svg version="1.0" xmlns="http://www.w3.org/2000/svg"
 width="4210.000000pt" height="4210.000000pt" viewBox="0 0 4210.000000 4210.000000"
 preserveAspectRatio="xMidYMid meet">
<metadata>
Created by potrace 1.14, written by Peter Selinger 2001-2017
</metadata>
<g transform="translate(0.000000,4210.000000) scale(0.100000,-0.100000)"
fill="#000000" stroke="none">
<path d="M12907 26164 c-1 -1 -126 -5 -277 -9 -151 -4 -302 -8 -335 -10 -121
-5 -381 -17 -430 -20 -27 -2 -99 -6 -160 -9 -60 -4 -139 -8 -175 -11 -36 -3
-101 -7 -145 -10 -121 -8 -287 -21 -390 -29 -27 -3 -84 -8 -125 -11 -212 -18
-316 -27 -442 -40 -53 -6 -77 -8 -193 -20 -33 -3 -76 -8 -96 -11 -20 -2 -59
-7 -85 -9 -27 -3 -65 -7 -84 -10 -19 -2 -60 -7 -90 -10 -30 -3 -66 -8 -80 -10
-14 -2 -50 -7 -80 -10 -30 -3 -66 -8 -80 -10 -14 -2 -50 -7 -80 -10 -30 -3
-66 -8 -80 -10 -14 -2 -45 -7 -70 -10 -25 -3 -56 -8 -70 -10 -14 -2 -47 -7
-75 -11 -27 -3 -59 -7 -70 -9 -11 -2 -40 -6 -65 -9 -25 -3 -54 -8 -66 -10 -12
-2 -45 -7 -74 -11 -29 -4 -62 -9 -74 -11 -11 -2 -36 -6 -56 -9 -20 -3 -47 -8
-60 -10 -14 -3 -47 -8 -75 -11 -27 -3 -53 -7 -56 -9 -3 -2 -28 -7 -55 -11 -27
-3 -58 -8 -69 -10 -11 -2 -47 -9 -80 -14 -33 -5 -71 -12 -85 -15 -14 -3 -40
-8 -59 -11 -18 -3 -43 -8 -55 -10 -11 -2 -46 -8 -76 -14 -52 -9 -67 -12 -130
-25 -33 -7 -60 -12 -101 -19 -19 -3 -45 -8 -59 -11 -14 -3 -36 -7 -50 -10 -14
-3 -36 -7 -50 -10 -14 -3 -38 -8 -55 -11 -16 -2 -46 -9 -65 -14 -19 -5 -48
-11 -64 -14 -26 -5 -132 -27 -146 -31 -3 -1 -23 -5 -45 -9 -22 -4 -53 -12 -70
-16 -16 -5 -41 -11 -55 -14 -14 -3 -38 -8 -55 -11 -16 -3 -39 -9 -50 -12 -11
-4 -27 -7 -35 -9 -8 -1 -35 -7 -60 -13 -25 -6 -56 -14 -70 -17 -14 -3 -95 -23
-180 -45 -85 -23 -180 -47 -210 -55 -30 -8 -64 -17 -75 -20 -11 -3 -31 -7 -44
-10 -13 -3 -34 -10 -45 -16 -12 -6 -22 -11 -24 -10 -5 5 -45 -6 -327 -89 -186
-55 -645 -207 -810 -269 -60 -22 -129 -47 -152 -56 -52 -18 -394 -155 -460
-184 -26 -12 -57 -25 -68 -30 -11 -4 -51 -23 -90 -41 -38 -18 -72 -33 -75 -34
-22 -3 -500 -240 -635 -315 -231 -128 -419 -242 -627 -382 -229 -154 -370
-263 -667 -513 -63 -53 -304 -296 -406 -410 -364 -405 -663 -865 -830 -1276
-47 -113 -120 -326 -129 -371 -2 -13 -7 -30 -10 -38 -3 -8 -8 -26 -10 -40 -3
-14 -7 -36 -10 -50 -3 -14 -8 -36 -11 -50 -11 -50 -21 -113 -31 -180 -23 -164
-23 -505 0 -627 3 -11 7 -38 11 -59 11 -76 16 -99 21 -116 3 -9 6 -25 8 -35
26 -129 94 -318 178 -492 317 -656 998 -1284 1953 -1802 44 -24 112 -60 150
-81 338 -184 699 -334 1215 -505 107 -36 200 -66 205 -67 6 -2 17 -6 25 -9 8
-3 24 -7 35 -10 11 -3 97 -28 190 -57 94 -28 179 -53 190 -55 11 -2 21 -4 23
-6 1 -1 5 -2 10 -3 4 -2 27 -8 52 -15 25 -7 50 -14 55 -15 6 -2 30 -8 55 -15
25 -7 52 -14 60 -16 8 -2 50 -13 93 -25 43 -12 89 -24 102 -26 14 -2 35 -8 47
-13 13 -5 26 -9 30 -10 4 -1 13 -3 20 -5 7 -2 47 -11 88 -20 41 -10 158 -37
260 -62 102 -24 194 -46 205 -48 11 -3 54 -12 95 -21 41 -9 86 -19 100 -21 14
-3 41 -9 60 -14 19 -5 47 -11 63 -14 15 -3 35 -7 45 -10 9 -3 34 -7 56 -11 21
-3 41 -7 45 -9 3 -3 26 -7 51 -11 25 -4 47 -8 50 -10 3 -2 21 -6 40 -9 33 -5
50 -9 110 -21 14 -3 63 -12 110 -21 47 -9 93 -18 103 -20 10 -2 26 -5 35 -8 9
-3 40 -8 67 -12 28 -3 52 -8 55 -9 3 -2 24 -6 46 -9 22 -4 51 -8 64 -11 14 -3
50 -9 80 -15 30 -6 66 -12 80 -15 13 -3 40 -7 60 -10 35 -5 61 -10 110 -20 14
-2 40 -7 58 -10 46 -7 90 -14 152 -25 56 -9 112 -18 165 -25 17 -3 41 -7 55
-10 14 -3 43 -7 65 -10 22 -3 51 -7 65 -10 14 -2 43 -7 65 -10 23 -3 52 -7 65
-10 13 -3 42 -7 65 -10 22 -4 51 -8 65 -10 14 -2 45 -7 69 -10 23 -3 55 -7 70
-10 14 -2 44 -7 66 -9 36 -5 56 -8 145 -21 14 -2 63 -9 110 -15 47 -6 103 -13
125 -17 54 -8 81 -11 140 -18 28 -3 61 -7 75 -10 14 -3 50 -7 80 -11 30 -3 66
-7 80 -9 26 -4 62 -9 170 -20 36 -4 74 -9 85 -11 11 -2 47 -6 80 -10 33 -3 74
-8 90 -10 17 -2 50 -6 75 -8 25 -3 65 -7 90 -11 70 -9 110 -13 185 -21 39 -4
81 -8 95 -9 14 -2 57 -6 95 -10 39 -4 81 -9 95 -10 14 -1 54 -6 90 -9 36 -4
81 -9 100 -11 19 -2 67 -7 105 -10 39 -4 88 -9 110 -11 39 -4 109 -10 213 -19
28 -3 77 -7 108 -10 30 -3 86 -7 122 -10 37 -3 87 -8 112 -10 25 -2 74 -7 110
-10 36 -2 90 -7 120 -9 161 -14 209 -18 255 -21 28 -2 88 -6 135 -10 47 -3
112 -8 145 -11 33 -2 94 -7 135 -9 41 -3 102 -7 135 -10 33 -2 103 -7 155 -10
52 -3 127 -8 165 -10 64 -5 102 -7 310 -20 39 -2 122 -7 185 -10 63 -4 147 -8
185 -10 39 -3 120 -7 180 -10 61 -2 153 -7 205 -10 52 -3 149 -7 215 -10 66
-3 170 -7 230 -10 61 -3 171 -7 245 -10 74 -3 191 -7 260 -10 367 -14 955 -30
1471 -40 162 -2 416 -8 564 -12 365 -10 1692 -9 2155 1 206 5 422 10 480 11
58 1 218 6 355 10 138 4 288 9 335 10 84 2 439 15 575 20 70 3 389 15 520 20
39 1 149 6 245 10 96 4 202 9 235 10 107 4 368 16 450 20 44 2 136 7 205 10
231 11 430 20 620 30 47 2 137 7 200 10 63 3 149 8 190 10 41 3 129 7 195 10
66 4 147 8 180 10 33 2 114 6 180 10 66 3 147 8 180 10 33 2 114 7 180 10 66
4 145 8 175 10 30 2 107 6 170 10 117 6 147 8 350 21 63 4 135 8 160 9 25 1
99 6 165 10 66 4 138 9 160 10 141 8 288 17 335 20 30 2 98 6 150 10 110 6
240 15 324 20 32 3 102 7 155 10 53 3 123 8 156 10 136 9 225 15 310 20 50 3
115 8 145 10 30 2 98 7 150 10 52 3 120 8 150 10 30 2 100 7 155 10 55 3 120
8 145 10 42 4 164 12 285 20 167 11 246 16 295 20 30 3 91 7 135 10 83 6 174
12 285 20 36 3 101 7 145 10 44 3 105 7 135 10 30 2 93 7 140 10 47 3 110 8
140 10 30 3 89 7 130 10 168 12 317 23 405 30 33 2 98 7 145 11 47 3 105 7
130 9 135 10 212 16 275 20 39 3 99 8 135 11 36 2 92 7 125 9 114 8 210 16
260 20 28 2 84 7 125 10 41 3 98 7 125 10 28 2 90 6 139 10 49 3 106 8 125 10
20 2 79 6 131 10 52 3 111 8 130 10 19 2 73 6 120 9 128 10 293 23 380 31 25
2 85 7 133 10 48 3 107 8 130 10 23 3 76 7 117 10 41 3 100 7 130 10 30 3 87
7 125 10 39 3 99 8 135 11 36 3 85 7 110 9 25 2 77 6 115 9 39 4 97 8 130 11
33 3 87 7 120 10 33 2 92 7 131 10 40 3 89 7 110 10 54 5 224 18 252 18 12 1
22 4 22 8 0 4 -28 5 -62 4 -35 -2 -144 -6 -243 -10 -99 -3 -218 -8 -265 -10
-47 -2 -168 -7 -270 -10 -102 -4 -223 -8 -270 -10 -74 -3 -160 -6 -530 -20
-41 -1 -165 -6 -275 -10 -110 -4 -236 -8 -280 -10 -73 -3 -351 -13 -550 -20
-94 -3 -433 -15 -555 -20 -47 -2 -166 -6 -265 -9 -99 -4 -229 -9 -290 -11
-131 -5 -412 -15 -585 -20 -69 -2 -192 -7 -275 -10 -210 -7 -371 -13 -585 -20
-102 -3 -234 -8 -295 -10 -60 -2 -189 -6 -285 -10 -96 -3 -231 -8 -300 -10
-69 -2 -204 -7 -300 -10 -96 -3 -233 -8 -305 -10 -71 -3 -204 -7 -295 -10 -91
-3 -228 -7 -305 -10 -77 -2 -221 -7 -320 -10 -99 -3 -247 -7 -330 -10 -225 -8
-571 -19 -945 -30 -85 -2 -236 -7 -335 -10 -99 -3 -250 -8 -335 -10 -215 -7
-461 -14 -685 -20 -104 -3 -260 -8 -345 -10 -85 -2 -247 -7 -360 -10 -113 -3
-275 -8 -360 -10 -148 -4 -439 -12 -770 -20 -85 -2 -270 -7 -410 -10 -140 -3
-327 -8 -415 -10 -242 -6 -772 -17 -935 -20 -80 -1 -352 -6 -605 -11 -591 -11
-2254 -11 -2540 -1 -121 4 -283 10 -360 12 -206 6 -379 13 -775 30 -169 8
-374 18 -600 30 -47 3 -130 7 -185 10 -101 5 -156 9 -340 20 -55 4 -129 8
-165 10 -106 6 -279 18 -450 30 -36 3 -101 7 -145 10 -44 3 -102 7 -130 10
-27 2 -88 6 -135 10 -47 3 -107 7 -135 10 -27 2 -86 7 -130 10 -44 3 -100 8
-125 10 -25 3 -74 7 -110 10 -36 3 -90 7 -120 10 -30 3 -86 7 -125 10 -38 3
-90 8 -115 10 -25 2 -74 7 -110 10 -36 3 -83 7 -105 9 -22 2 -74 7 -115 11
-41 4 -93 9 -115 11 -22 2 -67 6 -100 9 -33 3 -82 8 -110 10 -27 3 -68 8 -90
10 -22 2 -71 7 -110 11 -38 3 -81 8 -95 9 -25 3 -126 14 -190 20 -47 5 -153
16 -270 29 -30 4 -75 9 -99 11 -24 2 -60 7 -80 9 -20 3 -63 8 -96 11 -33 3
-70 7 -82 9 -12 3 -50 7 -85 10 -35 4 -72 8 -83 10 -11 2 -49 7 -85 11 -36 3
-76 8 -90 10 -87 12 -109 15 -147 20 -24 3 -60 7 -80 10 -21 2 -60 7 -88 10
-27 3 -63 7 -80 10 -46 7 -101 15 -153 21 -26 3 -60 7 -77 10 -16 3 -46 7 -65
10 -50 6 -111 15 -140 19 -14 2 -45 7 -69 10 -23 3 -55 7 -70 9 -14 3 -46 7
-71 10 -25 3 -54 8 -65 10 -11 2 -42 7 -70 10 -27 4 -61 8 -75 11 -14 2 -42 7
-62 10 -80 11 -115 16 -168 25 -30 5 -73 12 -95 15 -23 3 -52 7 -65 10 -13 3
-42 7 -65 10 -22 3 -65 10 -95 15 -30 5 -71 12 -90 15 -19 3 -47 8 -61 10 -14
3 -41 7 -60 9 -19 3 -45 8 -59 11 -14 3 -65 12 -115 20 -49 8 -101 17 -115 20
-13 2 -40 7 -60 10 -20 3 -47 7 -60 10 -14 3 -41 8 -60 11 -19 4 -44 8 -55 11
-11 2 -33 6 -50 8 -16 3 -41 7 -55 10 -14 3 -50 9 -80 15 -60 11 -92 17 -130
25 -14 2 -41 7 -60 10 -19 3 -51 10 -70 15 -19 5 -51 11 -70 14 -36 6 -47 8
-135 26 -85 18 -99 20 -135 26 -19 3 -38 8 -41 10 -3 2 -19 6 -35 8 -36 7 -72
14 -104 21 -62 13 -76 16 -95 20 -11 3 -29 7 -40 9 -11 3 -83 19 -160 36 -77
17 -151 33 -165 36 -14 3 -33 7 -42 10 -17 5 -46 12 -88 20 -14 3 -43 10 -65
16 -22 5 -50 12 -62 14 -12 2 -34 9 -48 14 -14 5 -25 8 -25 5 0 -2 -18 2 -40
10 -22 8 -40 12 -40 10 0 -3 -11 0 -25 5 -14 5 -36 12 -48 14 -12 3 -32 7 -44
10 -13 4 -32 8 -44 11 -11 2 -29 7 -39 10 -10 3 -27 8 -37 10 -10 2 -79 20
-153 40 -74 20 -145 39 -158 41 -13 3 -42 11 -65 18 -23 8 -94 29 -157 46 -63
18 -142 41 -175 52 -33 11 -71 22 -84 25 -14 2 -28 6 -33 9 -7 5 -154 51 -188
59 -8 2 -96 31 -195 65 -99 33 -184 62 -190 63 -5 1 -23 8 -40 14 -16 6 -70
26 -120 44 -230 81 -516 199 -680 280 -176 86 -275 138 -285 150 -3 3 -13 8
-23 12 -27 10 -299 182 -412 261 -88 61 -271 199 -285 215 -3 3 -27 24 -55 46
-142 112 -434 419 -556 586 -85 115 -248 384 -255 419 0 3 -10 25 -21 50 -26
57 -71 168 -78 190 -1 3 -7 23 -14 45 -32 104 -54 196 -67 275 -3 19 -7 46
-10 60 -23 128 -22 416 1 570 18 114 24 148 44 230 7 25 14 54 16 65 7 28 64
206 75 230 4 11 23 56 40 100 30 75 123 267 167 346 70 122 237 377 305 464 4
6 34 44 65 85 160 211 465 542 613 664 283 235 732 511 1240 764 265 132 325
160 570 267 47 20 99 43 115 50 42 20 344 141 440 177 44 17 103 39 130 50 28
10 70 26 95 34 25 9 59 22 77 30 17 8 37 14 45 14 8 0 17 3 21 6 5 5 171 66
212 78 6 2 17 6 25 9 21 8 304 101 310 102 3 0 46 14 95 29 50 16 91 28 92 28
2 -1 27 7 55 17 55 19 166 54 183 57 6 1 37 9 70 19 68 20 83 24 90 25 3 1 20
7 40 16 19 8 37 14 40 14 9 -1 58 12 164 42 58 16 112 32 120 34 9 2 34 8 56
14 22 6 47 12 55 14 8 2 35 10 60 17 25 7 54 14 65 16 11 2 88 21 170 43 83
21 162 41 177 44 15 2 31 7 35 9 5 3 24 8 43 11 19 3 60 12 92 20 31 9 67 17
80 20 12 3 32 7 43 10 19 4 151 33 188 41 10 2 26 6 35 9 9 3 28 7 42 10 14 3
36 8 50 10 14 3 34 8 45 10 11 2 76 16 145 31 69 14 136 28 150 31 21 4 45 9
95 20 30 7 74 15 105 20 19 3 43 7 52 10 20 6 43 10 92 18 19 3 56 10 81 16
25 6 62 13 81 16 20 3 46 8 58 10 11 2 35 6 51 9 17 3 53 10 80 15 28 5 64 12
80 15 17 3 40 7 51 9 12 2 38 7 58 10 20 3 52 9 72 12 20 3 46 8 58 10 11 2
37 7 56 10 19 3 60 9 90 14 30 5 72 12 94 16 21 3 47 7 56 9 10 2 40 7 67 11
26 3 57 8 68 10 11 2 40 7 65 10 25 3 52 7 60 9 8 3 35 7 60 10 25 3 59 8 75
11 51 8 78 13 125 19 25 3 72 10 105 15 33 5 80 12 105 15 25 3 56 8 70 10 14
2 50 7 80 10 30 4 64 9 75 11 11 2 40 6 65 9 25 3 54 7 65 9 11 2 49 7 85 10
36 4 76 9 90 11 14 3 45 7 70 10 25 3 61 7 80 9 19 2 60 7 91 11 31 3 65 7 76
9 10 2 50 7 88 11 39 3 81 8 95 10 27 4 124 15 180 20 19 2 58 6 85 9 70 8
122 14 300 31 39 4 84 9 100 10 17 2 63 6 103 10 41 3 92 8 115 11 44 4 102
10 227 20 41 4 89 8 105 9 17 2 45 3 63 4 17 0 32 4 32 9 0 6 -467 11 -473 6z"/>
<path d="M13390 26162 c0 -4 9 -8 20 -9 11 -1 20 2 20 5 0 4 -9 8 -20 9 -11 1
-20 -2 -20 -5z"/>
<path d="M4365 23566 c-11 -7 -47 -30 -80 -51 -105 -66 -138 -88 -250 -169
-480 -346 -894 -783 -1141 -1206 -60 -102 -160 -303 -179 -360 -2 -5 -10 -28
-28 -75 -7 -16 -12 -32 -13 -35 0 -3 -3 -12 -7 -20 -19 -48 -73 -257 -82 -320
-3 -25 -8 -52 -10 -60 -31 -116 -25 -528 11 -704 2 -11 7 -34 10 -51 10 -60
44 -184 70 -256 14 -41 29 -87 35 -104 14 -48 103 -216 162 -307 175 -272 490
-578 832 -808 44 -30 82 -57 85 -60 3 -3 21 -15 40 -27 19 -11 84 -50 144 -87
60 -36 110 -66 111 -66 1 0 42 -23 91 -51 133 -77 655 -332 683 -335 3 0 29
-11 56 -23 78 -37 500 -205 540 -215 6 -2 21 -8 35 -13 14 -6 45 -18 70 -26
25 -9 89 -31 143 -51 53 -19 97 -32 97 -29 0 3 6 1 13 -5 6 -5 32 -16 57 -23
55 -16 52 -14 70 -22 54 -22 714 -219 775 -232 5 -1 30 -7 55 -14 25 -7 52
-15 60 -17 8 -2 33 -8 55 -14 22 -6 51 -13 65 -16 14 -3 48 -12 76 -20 28 -8
61 -17 73 -19 11 -3 30 -7 41 -10 11 -3 28 -7 38 -9 9 -2 67 -16 127 -31 179
-43 268 -64 300 -70 17 -3 39 -8 50 -10 90 -20 349 -75 380 -81 17 -2 46 -9
65 -14 19 -5 51 -11 70 -14 19 -3 46 -8 60 -11 14 -3 39 -7 55 -10 17 -3 41
-8 55 -10 14 -3 36 -8 50 -10 14 -3 39 -8 55 -11 17 -4 39 -8 50 -9 37 -6 90
-16 105 -20 8 -2 33 -7 55 -10 23 -3 52 -7 65 -10 13 -3 40 -7 60 -10 20 -3
47 -8 60 -10 36 -7 70 -13 115 -20 23 -3 50 -7 60 -9 21 -4 76 -13 139 -22 21
-3 48 -8 60 -10 20 -4 83 -13 136 -19 14 -2 39 -5 55 -8 17 -3 50 -9 75 -12
25 -3 56 -8 70 -10 14 -3 48 -7 75 -10 28 -3 61 -7 74 -10 14 -2 47 -7 75 -10
28 -3 62 -8 76 -10 14 -2 48 -7 75 -10 28 -3 61 -7 74 -10 13 -2 49 -7 80 -10
31 -4 63 -8 71 -10 8 -2 44 -7 80 -10 36 -4 72 -8 80 -10 8 -2 44 -6 80 -10
36 -4 72 -8 80 -10 13 -3 101 -13 170 -20 14 -2 43 -5 65 -8 22 -3 65 -9 95
-12 30 -3 71 -8 90 -10 35 -5 96 -11 179 -20 24 -2 60 -7 80 -9 20 -3 63 -8
96 -11 33 -4 78 -8 100 -11 22 -2 63 -6 90 -9 28 -2 75 -7 105 -10 85 -9 150
-15 205 -20 28 -2 73 -7 100 -9 67 -7 166 -16 245 -22 36 -2 84 -6 106 -9 23
-2 81 -7 130 -10 49 -4 112 -8 139 -11 28 -2 88 -6 135 -9 47 -3 110 -8 140
-10 121 -9 425 -25 765 -40 662 -29 1714 -24 2430 10 88 4 181 8 207 9 26 1
50 5 54 8 3 4 -2 6 -12 6 -17 -1 -159 9 -244 17 -19 2 -73 7 -120 10 -47 4
-101 8 -120 10 -19 2 -64 6 -100 9 -36 3 -90 8 -120 11 -30 3 -84 7 -120 10
-94 7 -156 13 -230 20 -117 11 -154 14 -230 20 -41 4 -93 8 -115 11 -22 2 -71
6 -110 10 -38 3 -86 7 -105 9 -19 2 -72 7 -118 10 -45 3 -90 8 -100 10 -9 1
-53 6 -97 10 -44 3 -96 8 -115 10 -19 2 -69 6 -110 10 -41 4 -91 8 -110 10
-19 2 -66 7 -105 11 -38 3 -83 8 -100 9 -16 2 -59 6 -95 9 -36 4 -85 8 -110
11 -25 3 -70 7 -100 10 -30 3 -75 8 -100 10 -25 3 -65 8 -90 10 -25 2 -70 7
-100 10 -30 3 -77 8 -105 10 -27 3 -65 7 -85 9 -19 3 -64 8 -100 11 -36 3 -81
8 -100 10 -19 3 -60 7 -90 10 -30 3 -73 8 -94 10 -21 3 -60 7 -85 10 -25 3
-66 7 -91 10 -25 3 -70 8 -100 10 -30 3 -66 8 -80 10 -15 3 -53 7 -86 10 -59
6 -76 8 -169 19 -27 3 -66 8 -85 10 -19 3 -62 7 -95 11 -33 3 -71 8 -85 10
-14 2 -50 7 -80 10 -30 3 -66 7 -80 10 -14 2 -50 7 -80 10 -30 3 -66 8 -80 10
-14 2 -50 7 -80 10 -30 3 -66 8 -80 10 -14 3 -45 6 -70 9 -52 5 -137 17 -164
22 -10 2 -44 6 -75 9 -31 3 -67 8 -81 11 -14 2 -45 6 -70 9 -25 3 -56 8 -70
10 -14 2 -47 7 -75 11 -27 3 -59 7 -70 9 -11 2 -40 6 -65 9 -25 3 -56 8 -69
11 -14 2 -45 7 -70 10 -25 3 -55 7 -66 9 -24 4 -86 14 -140 21 -23 3 -52 7
-65 10 -13 3 -42 7 -65 10 -22 4 -53 8 -70 11 -16 3 -43 7 -60 9 -52 7 -146
22 -185 30 -13 2 -40 7 -60 10 -20 3 -47 7 -60 10 -13 3 -40 7 -60 10 -20 3
-45 7 -57 9 -11 3 -38 7 -59 10 -39 6 -129 22 -170 30 -12 2 -37 7 -55 10 -19
3 -44 8 -55 10 -12 2 -37 7 -55 10 -19 3 -45 8 -59 11 -22 4 -61 11 -113 21
-10 2 -26 5 -35 8 -9 3 -33 7 -52 10 -19 3 -46 8 -60 11 -14 3 -47 9 -75 15
-27 5 -61 12 -75 15 -14 3 -38 8 -55 11 -16 3 -80 16 -142 29 -61 14 -122 26
-135 29 -13 2 -41 9 -63 14 -22 6 -53 14 -70 16 -34 6 -27 5 -185 42 -63 14
-119 27 -125 28 -5 2 -37 9 -70 16 -33 8 -62 14 -65 15 -3 0 -14 4 -25 8 -11
3 -31 8 -45 11 -14 3 -79 19 -145 36 -66 18 -129 34 -139 36 -10 2 -33 8 -51
14 -18 6 -41 12 -52 14 -11 3 -50 14 -88 25 -37 12 -77 23 -89 25 -11 3 -52
14 -90 26 -38 12 -76 23 -85 25 -9 2 -44 13 -79 24 -54 18 -121 38 -157 47 -5
1 -77 25 -160 53 -82 27 -166 55 -185 62 -58 19 -251 88 -380 136 -90 33 -359
140 -425 168 -308 132 -582 262 -750 355 -33 18 -78 43 -100 55 -618 342
-1061 741 -1250 1130 -137 281 -180 391 -209 543 -9 42 -18 88 -21 102 -26
123 -26 485 -1 617 3 11 8 43 12 70 9 55 8 49 17 88 4 17 10 41 13 55 6 28 6
29 23 87 116 410 343 822 675 1223 101 123 121 144 336 363 107 109 197 200
199 202 8 9 -3 4 -24 -9z"/>
<path d="M19788 23075 c-2 -1 -39 -5 -83 -9 -44 -3 -92 -8 -107 -11 -16 -3
-40 -7 -55 -10 -16 -3 -44 -8 -63 -11 -19 -3 -52 -11 -72 -19 -21 -8 -38 -13
-38 -10 0 11 -213 -72 -310 -121 -433 -218 -758 -615 -899 -1099 -11 -38 -23
-81 -25 -95 -3 -14 -7 -36 -10 -50 -19 -85 -23 -118 -33 -240 -11 -133 -5
-342 12 -445 18 -110 18 -109 39 -190 40 -161 77 -259 147 -395 138 -269 324
-482 570 -650 215 -147 496 -253 764 -287 78 -10 403 -10 480 0 33 4 77 10 99
12 21 3 42 7 45 9 4 3 26 7 51 11 24 4 52 11 62 16 10 5 18 7 18 5 0 -3 12 -1
28 5 15 6 34 12 42 14 91 20 307 124 438 212 98 66 203 151 322 261 l65 61
-132 132 -131 132 -35 -29 c-19 -16 -76 -64 -127 -107 -51 -43 -125 -100 -164
-125 -39 -26 -73 -49 -76 -52 -6 -6 -172 -88 -180 -89 -3 0 -23 -8 -45 -17
-48 -20 -157 -52 -204 -60 -18 -3 -43 -8 -55 -10 -88 -18 -309 -23 -421 -11
-84 10 -259 55 -322 83 -29 12 -53 21 -53 19 0 -2 -37 17 -82 42 -375 206
-644 584 -714 1002 -3 18 -8 43 -10 55 -23 111 -22 384 1 509 3 15 7 37 9 50
2 12 12 51 21 87 9 36 18 70 20 75 2 10 4 16 38 105 98 261 308 520 542 667
85 54 254 131 325 149 185 46 205 49 390 49 154 0 220 -6 308 -26 26 -6 52
-12 57 -13 203 -45 455 -186 669 -375 38 -34 73 -60 76 -59 4 2 67 67 140 146
153 165 152 137 15 250 -44 37 -82 70 -85 73 -15 19 -238 160 -312 197 -82 41
-308 126 -308 117 0 -3 -11 0 -26 5 -14 6 -37 12 -52 15 -15 3 -38 7 -52 10
-14 3 -41 8 -60 11 -19 3 -46 7 -60 10 -61 10 -384 26 -392 19z"/>
<path d="M23428 23075 c-2 -2 -42 -6 -89 -9 -47 -4 -94 -8 -105 -10 -10 -2
-39 -7 -64 -11 -135 -20 -366 -98 -500 -168 -446 -234 -764 -637 -904 -1147
-8 -30 -17 -68 -20 -85 -3 -16 -8 -41 -11 -55 -33 -166 -38 -471 -11 -630 3
-14 7 -41 10 -60 11 -67 15 -85 61 -250 26 -94 166 -395 196 -420 3 -3 17 -23
31 -45 44 -70 145 -191 228 -271 84 -82 266 -224 287 -224 7 0 13 -4 13 -9 0
-24 371 -183 480 -205 14 -3 36 -8 50 -11 14 -3 36 -7 50 -10 14 -3 35 -7 48
-9 138 -28 500 -28 647 0 81 15 134 27 160 34 168 51 183 56 305 113 246 113
486 309 652 533 40 55 80 113 88 129 8 17 18 32 21 35 4 3 31 55 61 115 66
132 132 319 152 430 6 29 10 52 21 105 27 135 27 496 0 630 -3 14 -8 39 -11
55 -3 17 -7 35 -8 40 -1 6 -6 26 -10 45 -17 80 -81 262 -127 359 -49 104 -125
233 -141 239 -4 2 -8 9 -8 15 -1 29 -175 226 -284 322 -176 154 -458 309 -650
356 -23 5 -49 12 -58 14 -10 3 -27 7 -39 10 -11 2 -28 6 -37 9 -9 3 -35 8 -57
11 -23 3 -52 8 -65 10 -56 11 -354 27 -362 20z m314 -396 c123 -24 121 -23
213 -54 92 -31 205 -86 287 -139 84 -53 227 -175 273 -232 22 -27 46 -56 54
-64 29 -30 131 -193 165 -263 29 -60 78 -178 81 -197 1 -3 8 -30 17 -60 18
-61 35 -140 45 -215 10 -69 10 -357 0 -430 -9 -67 -63 -289 -76 -314 -5 -9
-10 -20 -11 -26 -11 -48 -91 -204 -154 -300 -123 -184 -327 -363 -516 -452
-84 -39 -173 -75 -187 -75 -4 0 -18 -4 -31 -9 -12 -5 -33 -11 -45 -13 -12 -3
-47 -10 -77 -16 -144 -30 -374 -32 -512 -5 -16 3 -39 7 -53 9 -63 11 -209 62
-295 103 -259 123 -484 342 -623 606 -35 67 -104 234 -111 272 -2 11 -11 47
-19 80 -45 176 -55 469 -22 635 3 14 7 37 10 53 3 15 12 53 21 85 8 31 17 64
19 72 7 33 69 179 103 245 118 226 309 425 527 550 97 55 281 127 347 135 4 1
21 5 38 10 17 5 54 12 83 15 28 4 53 8 55 10 13 12 314 0 394 -16z"/>
<path d="M30938 23065 c-2 -2 -37 -6 -78 -9 -85 -7 -110 -11 -195 -32 -33 -8
-68 -16 -78 -19 -145 -35 -343 -149 -464 -266 -186 -182 -272 -388 -272 -658
0 -291 94 -501 295 -662 34 -27 67 -49 73 -49 6 0 11 -4 11 -9 0 -17 260 -138
385 -180 107 -35 243 -74 304 -86 11 -2 24 -6 29 -8 4 -3 25 -8 47 -11 22 -4
56 -11 75 -16 19 -5 46 -11 60 -14 45 -9 71 -15 90 -21 10 -3 27 -7 37 -9 10
-2 45 -12 78 -22 33 -10 62 -18 65 -19 26 -4 180 -67 239 -98 163 -85 242
-167 287 -297 15 -43 19 -83 19 -180 0 -129 -2 -140 -53 -250 -38 -82 -166
-204 -266 -255 -44 -22 -82 -40 -85 -41 -3 0 -31 -7 -61 -16 -155 -47 -433
-57 -600 -23 -14 3 -41 8 -60 11 -19 3 -58 12 -86 20 -28 8 -60 16 -70 19 -11
2 -58 19 -106 39 -186 75 -326 161 -503 308 l-98 81 -26 -30 c-14 -16 -35 -40
-46 -54 -11 -13 -55 -66 -98 -116 -43 -51 -76 -96 -73 -102 8 -12 176 -146
241 -192 128 -89 299 -181 435 -232 108 -41 284 -92 350 -101 25 -3 56 -8 70
-11 134 -27 498 -27 640 0 67 13 90 18 155 37 189 54 365 155 485 277 114 115
183 230 228 376 33 104 41 176 37 325 -5 211 -53 355 -166 497 -51 65 -184
183 -206 183 -7 0 -13 4 -13 9 0 28 -443 213 -560 235 -14 2 -32 7 -40 10 -13
5 -123 31 -175 41 -62 12 -87 18 -155 36 -106 28 -112 29 -139 35 -13 3 -31 9
-40 13 -9 5 -20 10 -26 11 -21 5 -32 9 -95 31 -36 13 -67 24 -70 24 -3 1 -40
18 -83 39 -181 89 -277 192 -317 341 -15 52 -18 210 -6 260 4 17 8 35 10 42 1
7 5 16 9 19 4 4 7 14 7 22 0 25 78 138 126 181 58 54 134 102 214 134 57 23
79 29 140 44 111 25 387 25 516 -2 235 -47 457 -150 662 -303 40 -30 74 -53
76 -51 61 77 226 300 226 306 0 4 -33 32 -73 61 -39 29 -77 56 -84 62 -110 90
-450 238 -608 266 -25 4 -64 12 -90 17 -81 18 -445 43 -457 32z"/>
<path d="M14196 22973 c-16 -38 -42 -99 -58 -138 -16 -38 -38 -89 -49 -112
-10 -24 -19 -45 -19 -48 0 -4 -9 -27 -21 -53 -61 -137 -141 -330 -139 -337 1
-3 -5 -16 -13 -28 -7 -12 -28 -56 -44 -97 -50 -123 -193 -462 -214 -507 -10
-24 -19 -45 -19 -48 0 -3 -9 -24 -19 -48 -11 -23 -34 -76 -51 -117 -17 -41
-38 -88 -45 -105 -7 -16 -23 -54 -35 -84 -11 -30 -29 -73 -40 -95 -10 -23 -46
-108 -80 -191 -34 -82 -70 -168 -80 -190 -10 -22 -47 -110 -83 -195 -36 -85
-90 -213 -120 -285 -94 -222 -121 -290 -122 -295 -1 -3 -11 -27 -24 -55 -12
-27 -31 -72 -43 -100 -11 -27 -28 -68 -38 -90 -26 -57 -110 -263 -110 -270 0
-3 231 -5 513 -5 l513 0 65 168 c37 92 69 174 72 182 4 8 31 76 60 150 l53
135 681 0 680 0 23 -60 c13 -33 27 -64 32 -69 4 -6 8 -15 8 -22 0 -6 10 -33
22 -60 11 -27 21 -51 21 -54 1 -3 33 -86 73 -185 l72 -180 530 -3 531 -2 -14
27 c-7 16 -30 69 -50 118 -20 50 -46 110 -58 135 -12 25 -21 47 -22 50 -1 9
-167 403 -201 477 -8 17 -14 34 -14 37 0 3 -11 29 -24 58 -51 114 -66 148 -66
153 0 3 -9 24 -19 48 -11 23 -36 83 -57 132 -20 50 -44 108 -54 130 -10 22
-48 112 -85 200 -37 88 -73 174 -80 190 -8 17 -26 59 -40 95 -15 36 -33 79
-40 95 -8 17 -57 134 -110 260 -54 127 -103 244 -110 260 -8 17 -32 75 -55
130 -23 55 -45 105 -48 110 -4 6 -7 15 -8 20 -2 8 -204 488 -253 600 -5 11
-21 49 -36 85 -15 36 -36 84 -47 108 l-18 42 -473 0 -473 0 -28 -67z m639
-1473 c42 -107 80 -204 85 -215 12 -26 32 -77 35 -90 4 -13 63 -164 75 -190 5
-11 18 -44 29 -72 l19 -53 -389 0 c-214 0 -389 2 -389 5 0 4 55 143 95 240 5
11 9 22 10 25 1 3 5 14 10 25 4 11 66 165 136 343 71 178 131 328 135 333 6
11 14 -8 149 -351z"/>
<path d="M6140 21248 l0 -1768 490 0 490 0 0 535 0 535 215 0 216 0 355 -535
356 -535 564 0 c535 0 564 1 555 18 -5 9 -56 85 -113 167 -149 217 -242 353
-253 373 -5 9 -13 19 -16 22 -3 3 -45 64 -94 135 -87 127 -112 164 -268 392
-42 62 -77 116 -77 120 0 4 32 23 71 42 212 102 402 280 508 474 34 62 86 193
96 242 3 14 7 35 10 48 3 12 7 33 10 47 24 109 24 384 0 500 -3 14 -7 35 -9
47 -25 124 -96 289 -167 390 -123 173 -296 305 -512 392 -94 37 -178 62 -262
76 -16 3 -37 8 -45 10 -28 8 -117 21 -220 31 -36 4 -478 7 -982 8 l-918 1 0
-1767z m1770 908 c106 -17 229 -75 280 -133 29 -31 63 -83 66 -98 1 -5 9 -29
17 -52 11 -28 15 -73 13 -145 -1 -98 -3 -106 -40 -175 -20 -39 -52 -84 -70
-100 -50 -46 -148 -94 -247 -120 -13 -3 -201 -8 -416 -10 l-393 -5 0 420 c0
230 2 421 4 423 8 7 738 3 786 -5z"/>
<path d="M9950 21248 l0 -1768 493 0 492 0 0 628 0 627 833 3 832 2 -2 408 -3
407 -830 0 -830 0 -1 285 c0 157 2 291 4 298 3 9 196 12 921 12 l916 0 0 430
c0 280 -3 430 -10 431 -5 1 -641 2 -1412 3 l-1403 1 0 -1767z"/>
<path d="M25960 21248 l0 -1768 195 0 195 0 2 1441 3 1441 106 -134 c115 -145
662 -841 1483 -1883 290 -368 532 -677 539 -685 7 -8 41 -52 77 -98 l65 -82
160 2 160 3 0 1762 c0 1170 -3 1764 -10 1766 -5 2 -93 3 -195 3 l-185 -1 0
-1407 0 -1408 -21 23 c-12 12 -166 207 -343 432 -177 226 -368 468 -424 539
-162 206 -266 339 -292 371 -12 17 -110 140 -216 275 -106 135 -347 442 -536
683 -190 241 -355 450 -368 465 l-23 27 -186 0 -186 0 0 -1767z"/>
<path d="M33070 21248 l0 -1768 1293 0 1292 0 0 185 0 185 -1086 0 c-861 0
-1088 3 -1091 13 -2 6 -4 282 -4 612 l1 600 963 3 962 2 0 183 0 182 -962 0
-963 0 0 600 0 600 1075 0 1075 0 0 183 c0 100 -2 183 -5 183 -3 1 -578 2
-1277 3 l-1273 1 0 -1767z"/>
<path d="M36491 23010 c-3 -3 -7 -797 -6 -1765 l0 -1760 200 0 200 0 0 1763
c0 969 -2 1763 -5 1763 -17 4 -383 3 -389 -1z"/>
<path d="M37824 23011 c-2 -2 -4 -798 -4 -1768 l0 -1763 1195 0 1195 0 0 188
0 187 -990 0 c-654 0 -991 3 -993 10 -2 5 -3 715 -3 1578 1 862 -1 1568 -4
1568 -16 4 -392 4 -396 0z"/>
<path d="M34173 16663 c9 -2 25 -2 35 0 9 3 1 5 -18 5 -19 0 -27 -2 -17 -5z"/>
</g>
</svg>
